<svg width="3011" height="800" viewBox="0 0 3011 800" fill="none" xmlns="http://www.w3.org/2000/svg">
<rect width="3011" height="800" rx="50" fill="#121412" fill-opacity="0.92"/>
<path d="M331.959 230.855C362.657 261.389 382.747 399.749 382.747 399.749C382.747 399.749 244.282 380.401 213.584 349.868C182.886 319.334 184.499 267.94 217.187 235.076C249.876 202.211 301.261 200.322 331.959 230.855Z" fill="#6ED083"/>
<circle cx="276.683" cy="293.974" r="37.5" transform="rotate(-45.1539 276.683 293.974)" fill="#121412" fill-opacity="0.92"/>
<path d="M225.128 558.722C195.716 529.468 194.752 484.428 220.945 458.093C226.857 452.149 239.306 445.743 256.506 439.566C273.247 433.554 292.979 428.267 312 423.879C330.981 419.501 349.048 416.063 362.384 413.72C365.453 413.181 368.269 412.703 370.785 412.282C370.378 414.8 369.913 417.618 369.39 420.69C367.119 434.037 363.779 452.123 359.503 471.127C355.217 490.171 350.036 509.931 344.114 526.704C338.029 543.937 331.69 556.421 325.778 562.365C299.584 588.699 254.54 587.977 225.128 558.722Z" stroke="white" stroke-width="20"/>
<circle cx="277.717" cy="505.568" r="37.5" transform="rotate(-135.154 277.717 505.568)" fill="white"/>
<path d="M434.041 569.145C403.343 538.611 383.253 400.251 383.253 400.251C383.253 400.251 521.718 419.599 552.416 450.132C583.114 480.666 581.501 532.06 548.813 564.924C516.124 597.789 464.739 599.678 434.041 569.145Z" fill="white"/>
<circle cx="488.567" cy="505.281" r="37.5" transform="rotate(134.846 488.567 505.281)" fill="#121412" fill-opacity="0.92"/>
<path d="M540.872 241.278C570.284 270.532 571.248 315.572 545.055 341.907C539.143 347.851 526.694 354.257 509.494 360.434C492.753 366.446 473.021 371.733 454 376.121C435.019 380.499 416.952 383.937 403.616 386.28C400.547 386.819 397.731 387.297 395.215 387.718C395.622 385.2 396.087 382.382 396.609 379.31C398.881 365.963 402.221 347.877 406.497 328.873C410.783 309.829 415.964 290.069 421.886 273.296C427.971 256.063 434.31 243.579 440.222 237.635C466.416 211.301 511.46 212.023 540.872 241.278Z" fill="#121412" fill-opacity="0.92" stroke="#6ED083" stroke-width="20"/>
<circle cx="488.279" cy="293.685" r="37.5" transform="rotate(44.8461 488.279 293.685)" fill="#6ED083"/>
<rect width="30" height="450" transform="translate(658 175)" fill="white"/>
<path d="M762.817 539.8V259.8H832.417L890.417 383.4C897.084 397.8 902.417 409.667 906.417 419C910.684 428.333 913.884 436.067 916.017 442.2C918.417 448.333 920.284 453.667 921.617 458.2C922.95 453.667 924.684 448.333 926.817 442.2C928.95 436.067 932.017 428.333 936.017 419C940.284 409.667 945.75 397.8 952.417 383.4L1010.82 259.8H1078.02V539.8H1023.22V426.6C1023.22 413.8 1023.35 402.867 1023.62 393.8C1023.88 384.733 1024.28 376.467 1024.82 369C1025.35 361.267 1026.15 353.4 1027.22 345.4L934.017 539.8H906.817L813.617 345.4C814.684 353.4 815.484 361.267 816.017 369C816.55 376.467 816.95 384.733 817.217 393.8C817.484 402.867 817.617 413.8 817.617 426.6V539.8H762.817Z" fill="white"/>
<path d="M1208.7 545C1189.76 545 1172.43 540.2 1156.7 530.6C1141.23 520.733 1128.83 507.667 1119.5 491.4C1110.43 474.867 1105.9 456.6 1105.9 436.6C1105.9 421.667 1108.56 407.667 1113.9 394.6C1119.23 381.267 1126.56 369.667 1135.9 359.8C1145.23 349.667 1156.03 341.8 1168.3 336.2C1180.83 330.333 1194.3 327.4 1208.7 327.4C1226.83 327.4 1240.96 330.867 1251.1 337.8C1261.23 344.467 1269.1 353.4 1274.7 364.6V331.8H1328.3V539.8H1275.9V505.8C1270.3 517.533 1262.3 527 1251.9 534.2C1241.76 541.4 1227.36 545 1208.7 545ZM1217.5 496.2C1229.5 496.2 1239.76 493.533 1248.3 488.2C1257.1 482.6 1263.9 475.267 1268.7 466.2C1273.5 457.133 1275.9 447.267 1275.9 436.6C1275.9 425.667 1273.5 415.667 1268.7 406.6C1263.9 397.533 1257.1 390.2 1248.3 384.6C1239.76 379 1229.5 376.2 1217.5 376.2C1206.03 376.2 1195.9 379 1187.1 384.6C1178.56 389.933 1171.9 397.133 1167.1 406.2C1162.3 415.267 1159.9 425.267 1159.9 436.2C1159.9 446.6 1162.3 456.467 1167.1 465.8C1171.9 474.867 1178.56 482.2 1187.1 487.8C1195.9 493.4 1206.03 496.2 1217.5 496.2Z" fill="white"/>
<path d="M1360.38 619.8V331.8H1413.58V365.4C1419.18 353.933 1427.05 344.733 1437.18 337.8C1447.58 330.867 1461.85 327.4 1479.98 327.4C1494.38 327.4 1507.71 330.333 1519.98 336.2C1532.51 341.8 1543.45 349.667 1552.78 359.8C1562.11 369.667 1569.45 381.267 1574.78 394.6C1580.11 407.667 1582.78 421.667 1582.78 436.6C1582.78 456.6 1578.11 474.867 1568.78 491.4C1559.71 507.667 1547.45 520.733 1531.98 530.6C1516.51 540.2 1499.18 545 1479.98 545C1462.11 545 1448.11 541.8 1437.98 535.4C1427.85 528.733 1419.98 519.933 1414.38 509V619.8H1360.38ZM1471.18 496.2C1482.65 496.2 1492.65 493.4 1501.18 487.8C1509.98 482.2 1516.78 474.867 1521.58 465.8C1526.38 456.467 1528.78 446.6 1528.78 436.2C1528.78 425.267 1526.38 415.267 1521.58 406.2C1516.78 397.133 1509.98 389.933 1501.18 384.6C1492.65 379 1482.65 376.2 1471.18 376.2C1459.45 376.2 1449.18 379 1440.38 384.6C1431.58 390.2 1424.78 397.533 1419.98 406.6C1415.18 415.667 1412.78 425.667 1412.78 436.6C1412.78 447.267 1415.18 457.133 1419.98 466.2C1424.78 475.267 1431.58 482.6 1440.38 488.2C1449.18 493.533 1459.45 496.2 1471.18 496.2Z" fill="white"/>
<path d="M1606.86 619.8V331.8H1660.06V365.4C1665.66 353.933 1673.53 344.733 1683.66 337.8C1694.06 330.867 1708.33 327.4 1726.46 327.4C1740.86 327.4 1754.2 330.333 1766.46 336.2C1779 341.8 1789.93 349.667 1799.26 359.8C1808.6 369.667 1815.93 381.267 1821.26 394.6C1826.6 407.667 1829.26 421.667 1829.26 436.6C1829.26 456.6 1824.6 474.867 1815.26 491.4C1806.2 507.667 1793.93 520.733 1778.46 530.6C1763 540.2 1745.66 545 1726.46 545C1708.6 545 1694.6 541.8 1684.46 535.4C1674.33 528.733 1666.46 519.933 1660.86 509V619.8H1606.86ZM1717.66 496.2C1729.13 496.2 1739.13 493.4 1747.66 487.8C1756.46 482.2 1763.26 474.867 1768.06 465.8C1772.86 456.467 1775.26 446.6 1775.26 436.2C1775.26 425.267 1772.86 415.267 1768.06 406.2C1763.26 397.133 1756.46 389.933 1747.66 384.6C1739.13 379 1729.13 376.2 1717.66 376.2C1705.93 376.2 1695.66 379 1686.86 384.6C1678.06 390.2 1671.26 397.533 1666.46 406.6C1661.66 415.667 1659.26 425.667 1659.26 436.6C1659.26 447.267 1661.66 457.133 1666.46 466.2C1671.26 475.267 1678.06 482.6 1686.86 488.2C1695.66 493.533 1705.93 496.2 1717.66 496.2Z" fill="white"/>
<path d="M1951 545C1929.66 545 1910.86 540.067 1894.6 530.2C1878.33 520.333 1865.66 507.267 1856.6 491C1847.8 474.467 1843.4 456.2 1843.4 436.2C1843.4 416.2 1848.06 397.933 1857.4 381.4C1866.73 364.6 1879.4 351.267 1895.4 341.4C1911.66 331.533 1930.2 326.6 1951 326.6C1971.8 326.6 1990.06 331.533 2005.8 341.4C2021.8 351.267 2034.2 364.6 2043 381.4C2052.06 397.933 2056.6 416.2 2056.6 436.2C2056.6 439.133 2056.46 442.2 2056.2 445.4C2055.93 448.6 2055.53 451.933 2055 455.4H1899.4C1902.33 467.667 1908.2 477.667 1917 485.4C1926.06 493.133 1937.4 497 1951 497C1962.73 497 1972.86 494.333 1981.4 489C1990.2 483.667 1997 477 2001.8 469L2043.8 500.6C2035.53 513.667 2023.13 524.333 2006.6 532.6C1990.06 540.867 1971.53 545 1951 545ZM1950.2 373C1937.4 373 1926.46 376.867 1917.4 384.6C1908.33 392.333 1902.33 402.467 1899.4 415H2002.2C1999.26 403.533 1993.13 393.667 1983.8 385.4C1974.73 377.133 1963.53 373 1950.2 373Z" fill="white"/>
<path d="M2080.3 539.8V331.8H2133.5V362.2C2144.43 338.733 2165.63 327 2197.1 327C2212.03 327 2225.5 330.467 2237.5 337.4C2249.5 344.333 2258.97 354.2 2265.9 367C2272.83 379.8 2276.3 395 2276.3 412.6V539.8H2222.3V425.8C2222.3 407.667 2218.17 394.6 2209.9 386.6C2201.63 378.333 2190.83 374.2 2177.5 374.2C2166.03 374.2 2155.9 378.333 2147.1 386.6C2138.57 394.6 2134.3 407.667 2134.3 425.8V539.8H2080.3Z" fill="white"/>
<path d="M2333.27 314.6C2324.21 314.6 2316.47 311.533 2310.07 305.4C2303.94 299 2300.87 291.4 2300.87 282.6C2300.87 274.067 2303.94 266.733 2310.07 260.6C2316.47 254.2 2324.21 251 2333.27 251C2342.61 251 2350.34 254.2 2356.47 260.6C2362.61 266.733 2365.67 274.067 2365.67 282.6C2365.67 291.667 2362.61 299.267 2356.47 305.4C2350.34 311.533 2342.61 314.6 2333.27 314.6ZM2306.47 539.8V331.8H2360.47V539.8H2306.47Z" fill="white"/>
<path d="M2392.41 539.8V331.8H2445.61V362.2C2456.54 338.733 2477.74 327 2509.21 327C2524.14 327 2537.61 330.467 2549.61 337.4C2561.61 344.333 2571.08 354.2 2578.01 367C2584.94 379.8 2588.41 395 2588.41 412.6V539.8H2534.41V425.8C2534.41 407.667 2530.28 394.6 2522.01 386.6C2513.74 378.333 2502.94 374.2 2489.61 374.2C2478.14 374.2 2468.01 378.333 2459.21 386.6C2450.68 394.6 2446.41 407.667 2446.41 425.8V539.8H2392.41Z" fill="white"/>
<path d="M2719.78 625C2698.72 625 2679.92 622.067 2663.38 616.2C2647.12 610.6 2632.72 600.467 2620.18 585.8L2653.78 546.2C2663.65 557.4 2673.92 565 2684.58 569C2695.25 573 2707.12 575 2720.18 575C2729.78 575 2738.72 572.6 2746.98 567.8C2755.25 563 2761.78 556.2 2766.58 547.4C2771.65 538.867 2774.18 529.133 2774.18 518.2V509C2768.58 518.6 2760.85 526.333 2750.98 532.2C2741.38 538.067 2728.18 541 2711.38 541C2692.45 541 2675.25 536.2 2659.78 526.6C2644.58 517 2632.58 504.2 2623.78 488.2C2614.98 471.933 2610.58 453.8 2610.58 433.8C2610.58 413.8 2614.98 395.667 2623.78 379.4C2632.58 363.133 2644.58 350.333 2659.78 341C2675.25 331.4 2692.45 326.6 2711.38 326.6C2728.72 326.6 2742.18 329.667 2751.78 335.8C2761.65 341.933 2769.38 350.067 2774.98 360.2V331.8H2828.18V521.4C2828.18 542.733 2823.52 561.133 2814.18 576.6C2805.12 592.067 2792.45 603.933 2776.18 612.2C2759.92 620.733 2741.12 625 2719.78 625ZM2720.18 491.8C2738.05 491.8 2751.92 486.2 2761.78 475C2771.65 463.8 2776.58 450.067 2776.58 433.8C2776.58 417.533 2771.65 403.8 2761.78 392.6C2751.92 381.4 2738.05 375.8 2720.18 375.8C2702.58 375.8 2688.85 381.4 2678.98 392.6C2669.38 403.8 2664.58 417.533 2664.58 433.8C2664.58 444.2 2666.72 453.8 2670.98 462.6C2675.52 471.4 2681.92 478.467 2690.18 483.8C2698.45 489.133 2708.45 491.8 2720.18 491.8Z" fill="white"/>
</svg>
