<svg width="700" height="700" viewBox="0 0 700 700" fill="none" xmlns="http://www.w3.org/2000/svg">
<path d="M270.602 86.886C318.355 134.383 349.607 349.609 349.607 349.609C349.607 349.609 134.216 319.513 86.4634 272.017C38.711 224.52 41.2209 144.574 92.0694 93.4512C142.918 42.3287 222.85 39.3894 270.602 86.886Z" fill="#6ED083"/>
<circle cx="184.183" cy="185.072" r="58.0253" transform="rotate(-45.1539 184.183 185.072)" fill="#121412" fill-opacity="0.92"/>
<path d="M100.503 600.841C52.8335 553.426 50.8191 479.839 93.9754 436.45C104.128 426.242 124.563 415.941 151.354 406.32C177.687 396.863 208.617 388.581 238.307 381.732C267.956 374.892 296.161 369.527 316.968 365.871C325.15 364.433 332.181 363.264 337.695 362.371C336.832 367.89 335.7 374.927 334.306 383.116C330.762 403.943 325.548 432.176 318.868 461.862C312.178 491.588 304.064 522.563 294.749 548.946C285.271 575.788 275.079 596.277 264.926 606.485C221.77 649.873 148.173 648.255 100.503 600.841Z" stroke="white" stroke-width="20"/>
<circle cx="186.228" cy="514.651" r="58.0253" transform="rotate(-135.154 186.228 514.651)" fill="white"/>
<path d="M429.398 613.114C381.645 565.617 350.393 350.391 350.393 350.391C350.393 350.391 565.784 380.487 613.537 427.983C661.289 475.48 658.779 555.426 607.931 606.549C557.082 657.671 477.15 660.611 429.398 613.114Z" fill="white"/>
<circle cx="514.651" cy="513.769" r="58.0253" transform="rotate(134.846 514.651 513.769)" fill="#121412" fill-opacity="0.92"/>
<path d="M599.497 99.1592C647.167 146.574 649.181 220.161 606.025 263.55C595.872 273.758 575.438 284.059 548.646 293.68C522.313 303.137 491.383 311.419 461.693 318.268C432.044 325.108 403.839 330.473 383.032 334.129C374.85 335.567 367.819 336.736 362.305 337.629C363.168 332.11 364.3 325.073 365.694 316.884C369.239 296.057 374.452 267.824 381.132 238.138C387.822 208.412 395.936 177.437 405.251 151.054C414.729 124.212 424.921 103.723 435.074 93.5152C478.23 50.1265 551.827 51.7451 599.497 99.1592Z" fill="#121412" fill-opacity="0.92" stroke="#6ED083" stroke-width="20"/>
<circle cx="513.766" cy="184.186" r="58.0253" transform="rotate(44.8461 513.766 184.186)" fill="#6ED083"/>
</svg>
